<svg role="img" viewBox="0 0 50 50" xmlns="http://www.w3.org/2000/svg" id="Godaddy--Streamline-Simple-Icons" height="50" width="50">
  <desc>
    Godaddy Streamline Icon: https://streamlinehq.com
  </desc>
  <title>GoDaddy</title>
  <path d="M43.12916666666667 4.770833333333334c-5.195833333333334 -3.2375000000000003 -12.0375 -2.472916666666667 -18.1375 1.3625C18.908333333333335 2.3000000000000003 12.062500000000002 1.5333333333333334 6.875 4.770833333333334c-8.210416666666667 5.1312500000000005 -9.208333333333334 18.34583333333333 -2.229166666666667 29.514583333333334 5.145833333333334 8.2375 13.193750000000001 13.060416666666669 20.354166666666668 12.970833333333335 7.164583333333334 0.08958333333333333 15.210416666666669 -4.7354166666666675 20.356250000000003 -12.970833333333335 6.972916666666667 -11.168750000000001 5.983333333333333 -24.383333333333336 -2.2270833333333333 -29.514583333333334zM8.420833333333334 31.933333333333334a26.745833333333334 26.745833333333334 0 0 1 -3.2208333333333337 -7.377083333333334 21.083333333333332 21.083333333333332 0 0 1 -0.7000000000000001 -6.9541666666666675c0.3125 -4.125 1.9916666666666667 -7.341666666666668 4.729166666666667 -9.052083333333334 2.7395833333333335 -1.7125000000000001 6.358333333333334 -1.8125000000000002 10.214583333333334 -0.2854166666666667 0.5854166666666668 0.2354166666666667 1.1583333333333334 0.5 1.71875 0.7958333333333334A31.479166666666668 31.479166666666668 0 0 0 15.625000000000002 15.708333333333334c-4.239583333333334 6.78125 -5.53125 14.329166666666667 -4.052083333333334 20.343750000000004a27.59791666666667 27.59791666666667 0 0 1 -3.154166666666667 -4.125zm36.38541666666667 -7.377083333333334a26.804166666666667 26.804166666666667 0 0 1 -3.222916666666667 7.375000000000001 27.604166666666668 27.604166666666668 0 0 1 -3.1520833333333336 4.133333333333334c1.3229166666666667 -5.393750000000001 0.4229166666666667 -12 -2.81875 -18.195833333333333a0.8125000000000001 0.8125000000000001 0 0 0 -1.1729166666666666 -0.31875000000000003l-10.108333333333334 6.316666666666667a0.8270833333333334 0.8270833333333334 0 0 0 -0.2625 1.1375000000000002l1.4833333333333334 2.372916666666667a0.8229166666666667 0.8229166666666667 0 0 0 1.1395833333333334 0.2625l6.552083333333334 -4.093750000000001c0.2104166666666667 0.6375000000000001 0.4229166666666667 1.2625 0.5833333333333335 1.9083333333333334 0.6166666666666667 2.2625 0.8541666666666666 4.6125 0.6979166666666667 6.952083333333334 -0.3125 4.129166666666667 -1.9916666666666667 7.34375 -4.729166666666667 9.056250000000002a9.24375 9.24375 0 0 1 -4.6875 1.3541666666666667h-0.2104166666666667a9.233333333333334 9.233333333333334 0 0 1 -4.6875 -1.3541666666666667c-2.7375000000000003 -1.7125000000000001 -4.41875 -4.927083333333334 -4.729166666666667 -9.056250000000002 -0.15416666666666667 -2.3395833333333336 0.08125 -4.689583333333333 0.6979166666666667 -6.952083333333334a27.525000000000002 27.525000000000002 0 0 1 8.4375 -13.504166666666668 21.14166666666667 21.14166666666667 0 0 1 5.935416666666668 -3.6770833333333335c3.84375 -1.5270833333333333 7.470833333333333 -1.4270833333333335 10.208333333333334 0.2854166666666667 2.741666666666667 1.7125000000000001 4.420833333333333 4.927083333333334 4.73125 9.052083333333334a21.137500000000003 21.137500000000003 0 0 1 -0.6875000000000001 6.945833333333334z" fill="#ffffff" stroke-width="2.0833"></path>
</svg>